<?xml version="1.0" encoding="UTF-8" standalone="no"?>
<svg width="37px" height="37px" viewBox="0 0 37 37" version="1.1" xmlns="http://www.w3.org/2000/svg" xmlns:xlink="http://www.w3.org/1999/xlink" xmlns:sketch="http://www.bohemiancoding.com/sketch/ns">
    <!-- Generator: Sketch 3.4.4 (17249) - http://www.bohemiancoding.com/sketch -->
    <title>Shape + Path</title>
    <desc>Created with Sketch.</desc>
    <defs></defs>
    <g id="Welcome" stroke="none" stroke-width="1" fill="none" fill-rule="evenodd" sketch:type="MSPage">
        <g id="Blog-FN" sketch:type="MSArtboardGroup" transform="translate(-1118.000000, -299.000000)">
            <g id="Shape-+-Path" sketch:type="MSLayerGroup" transform="translate(1118.000000, 299.000000)">
                <path d="M18.5,0 C8.325,0 0,8.325 0,18.5 C0,28.675 8.325,37 18.5,37 C28.675,37 37,28.675 37,18.5 C37,8.325 28.675,0 18.5,0 L18.5,0 Z M27.75,25.16 L25.16,27.75 L18.5,21.09 L11.84,27.75 L9.25,25.16 L15.91,18.5 L9.25,11.84 L11.84,9.25 L18.5,15.91 L25.16,9.25 L27.75,11.84 L21.09,18.5 L27.75,25.16 L27.75,25.16 Z" id="Shape" fill="#AB1515" sketch:type="MSShapeGroup"></path>
                <path d="M27.75,25.16 L25.16,27.75 L18.5,21.09 L11.84,27.75 L9.25,25.16 L15.91,18.5 L9.25,11.84 L11.84,9.25 L18.5,15.91 L25.16,9.25 L27.75,11.84 L21.09,18.5 L27.75,25.16 L27.75,25.16 Z" id="Path" fill="#FFFFFF" sketch:type="MSShapeGroup"></path>
            </g>
        </g>
    </g>
</svg>